<svg xmlns="http://www.w3.org/2000/svg" xmlns:xlink="http://www.w3.org/1999/xlink" fill="none" version="1.1" width="150" height="150" viewBox="0 0 150 150"><g><g><ellipse cx="75" cy="75" rx="75" ry="75" fill="#FFFFFF" fill-opacity="1"/></g><g transform="matrix(1,0,0,-1,0,240)"><g><path d="M25,207.0779C25,204.6234,25.543482,204.1558,28.26089,204.1558C30.10873,204.1558,32.50006,203.1039,33.69572,201.8182C35.760999999999996,199.5974,35.8696,197.961,35.8696,165C35.8696,132.039,35.760999999999996,130.4026,33.69572,128.18182C32.50006,126.8961,30.10873,125.84415,28.26089,125.84415C25.543482,125.84415,25,125.37662,25,122.92208L25,120L39.1305,120L53.2611,120L53.2611,122.92208C53.2611,125.25974,52.6089,126.07792,50.0002,126.54546C48.260999999999996,127.01299,46.304500000000004,127.94805,45.6523,128.76623C44.8915,129.7013,44.674099999999996,141.5065,44.7828,162.7792L45.1088,195.3896L57.1742,157.987L69.1308,120.584415L73.3699,120.584415L77.6091,120.584415L81.7396,134.6104C84.1309,142.3247,89.7831,161.2597,94.4571,176.6883C99.131,192.1169,103.3702,205.9091,103.6963,207.42860000000002C104.4571,209.7662,104.131,210,100.6527,210L96.8484,210L88.044,181.1299C83.1526,165.1169,78.8048,151.7922,78.37,151.3247C77.93520000000001,150.7403,75.7613,156.3506,73.3699,163.5974C71.0873,170.7273,66.8481,184.1688,63.8046,193.4026L58.4785,210L41.7393,210L25,210L25,207.0779Z" fill="#000000" fill-opacity="1" style="mix-blend-mode:passthrough"/></g><g><path d="M25,207.0779C25,204.6234,25.543482,204.1558,28.26089,204.1558C30.10873,204.1558,32.50006,203.1039,33.69572,201.8182C35.760999999999996,199.5974,35.8696,197.961,35.8696,165C35.8696,132.039,35.760999999999996,130.4026,33.69572,128.18182C32.50006,126.8961,30.10873,125.84415,28.26089,125.84415C25.543482,125.84415,25,125.37662,25,122.92208L25,120L39.1305,120L53.2611,120L53.2611,122.92208C53.2611,125.25974,52.6089,126.07792,50.0002,126.54546C48.260999999999996,127.01299,46.304500000000004,127.94805,45.6523,128.76623C44.8915,129.7013,44.674099999999996,141.5065,44.7828,162.7792L45.1088,195.3896L57.1742,157.987L69.1308,120.584415L73.3699,120.584415L77.6091,120.584415L81.7396,134.6104C84.1309,142.3247,89.7831,161.2597,94.4571,176.6883C99.131,192.1169,103.3702,205.9091,103.6963,207.42860000000002C104.4571,209.7662,104.131,210,100.6527,210L96.8484,210L88.044,181.1299C83.1526,165.1169,78.8048,151.7922,78.37,151.3247C77.93520000000001,150.7403,75.7613,156.3506,73.3699,163.5974C71.0873,170.7273,66.8481,184.1688,63.8046,193.4026L58.4785,210L41.7393,210L25,210L25,207.0779Z" fill="#000000" fill-opacity="1" style="mix-blend-mode:passthrough"/></g><g><path d="M105.43545118164063,194.80519966552734C101.95716118164063,191.06493966552733,102.82673218164062,187.67532966552736,107.93547118164062,185.57143466552733C110.32679118164063,184.63636966552735,111.73984118164063,184.75325266552736,114.13116118164062,186.03896966552733C118.04426118164062,188.14285966552734,118.58776118164063,191.06493966552733,115.87026118164063,194.57142966552735C113.15290118164063,197.84416966552735,108.37025118164063,197.96106966552733,105.43545118164063,194.80519966552734Z" fill="#2A7DE1" fill-opacity="1" style="mix-blend-mode:passthrough"/></g><g><path d="M96.7389144897461,172.01304656448366C96.7389144897461,171.07794656448363,97.49978948974609,170.25974656448363,98.36936448974609,170.25974656448363C101.19547448974609,170.25974656448363,101.6302544897461,170.02594656448363,103.15200448974609,167.57144656448364C104.3476644897461,165.81814656448364,104.56506448974609,161.14284656448365,104.4563644897461,147.58444656448364C104.2389744897461,129.00001656448364,103.3693944897461,125.84416656448364,98.6954544897461,125.84416656448364C97.6084864897461,125.84416656448364,96.7389144897461,125.02598656448365,96.7389144897461,124.09091656448365C96.7389144897461,122.57144056448364,98.91284448974609,122.33767406448364,110.86941448974609,122.45455716448365C121.9565144897461,122.57144056448364,125.00001448974609,123.03897256448364,125.00001448974609,124.20780656448365C125.00001448974609,125.14286656448364,124.1304144897461,125.84416656448364,123.0434144897461,125.84416656448364C121.8478144897461,125.84416656448364,120.21731448974609,126.77922656448364,119.2391144897461,127.94806656448364C117.60861448974609,129.81819656448363,117.39121448974609,133.32464656448366,117.39121448974609,151.90914656448365L117.39121448974609,173.76624656448365L107.0651144897461,173.76624656448365C98.5867544897461,173.76624656448365,96.7389144897461,173.41554656448363,96.7389144897461,172.01304656448366Z" fill="#2A7DE1" fill-opacity="1" style="mix-blend-mode:passthrough"/></g></g></g></svg>