<svg xmlns="http://www.w3.org/2000/svg" xmlns:xlink="http://www.w3.org/1999/xlink" fill="none" version="1.1" width="48" height="48" viewBox="0 0 48 48"><defs><clipPath id="master_svg0_2_0390"><rect x="11.5" y="14" width="25" height="20" rx="0"/></clipPath></defs><g><rect x="0" y="0" width="48" height="48" rx="8" fill="#2A7DE1" fill-opacity="0.10000000149011612" style="mix-blend-mode:passthrough"/><g><rect x="11.5" y="10" width="25" height="28" rx="0" fill="#000000" fill-opacity="0" style="mix-blend-mode:passthrough"/><g clip-path="url(#master_svg0_2_0390)"><g transform="matrix(1,0,0,-1,0,68.859375)"><g><path d="M19.652166666595935,40.6796875Q23.068336666595936,40.7578075,25.358736666595938,42.7109375Q27.649036666595936,44.6249875,27.726736666595936,47.5546875Q27.649036666595936,50.4843875,25.358736666595938,52.3984875Q23.068336666595936,54.3515875,19.652166666595935,54.4296875Q16.236026666595937,54.3515875,13.945646666595936,52.3984875Q11.655276466595936,50.4843875,11.577636666595936,47.5546875Q11.616456566595936,45.2499875,13.130436666595935,43.5312475Q12.897516666595935,42.9453175,12.548133666595936,42.5546875Q12.276394666595936,42.2031275,12.043475666595937,42.0078075Q11.927015666595937,41.8906275,11.888195666595935,41.8515675Q11.849375666595936,41.8124975,11.849375666595936,41.8124975L11.810555666595937,41.8124975Q11.499996866595936,41.5390675,11.616456566595936,41.1093775Q11.771735666595935,40.7187475,12.198754666595935,40.6796875Q13.518626666595935,40.7187475,14.605586666595936,41.1484375Q15.149066666595935,41.3828075,15.576086666595936,41.6171875Q17.400616666595937,40.7187475,19.652166666595935,40.6796875ZM28.968936666595937,47.5546875Q28.852436666595935,44.1953075,26.484436666595936,42.0078075Q24.077636666595936,39.8203075,20.583846666595935,39.4687475Q21.321426666595936,37.2421875,23.417736666595935,35.8749975Q25.513936666595935,34.46875,28.347836666595935,34.4296875Q30.599336666595935,34.46875,32.423936666595935,35.3671875Q32.850936666595935,35.1328125,33.39443666659594,34.8984375Q34.481336666595936,34.46875,35.80123666659594,34.4296875Q36.22823666659593,34.46875,36.38353666659594,34.8593755Q36.50003666659593,35.2890625,36.150636666595936,35.5624975L36.150636666595936,35.6015675Q36.111836666595934,35.6015675,36.111836666595934,35.6015675Q36.072936666595936,35.6406275,35.95653666659594,35.7578075Q35.72363666659594,35.9531275,35.45183666659594,36.3046875Q35.102436666595935,36.7343775,34.869536666595934,37.2812475Q36.38353666659594,38.9999975,36.42233666659594,41.3046875Q36.344736666595935,44.0781275,34.248436666595936,45.9921875Q32.152136666595936,47.9062875,28.930136666595935,48.1796875Q28.968936666595937,47.8671875,28.968936666595937,47.5546875Z" fill="#000000" fill-opacity="1" style="mix-blend-mode:passthrough"/></g></g></g></g></g></svg>