<svg xmlns="http://www.w3.org/2000/svg" xmlns:xlink="http://www.w3.org/1999/xlink" fill="none" version="1.1" width="100" height="90" viewBox="0 0 100 90"><g transform="matrix(1,0,0,-1,0,180)"><g><path d="M0,177.0779C0,174.6234,0.543482,174.1558,3.26089,174.1558C5.10873,174.1558,7.50006,173.1039,8.69572,171.8182C10.761,169.5974,10.8696,167.961,10.8696,135C10.8696,102.039,10.761,100.4026,8.69572,98.18182C7.50006,96.8961,5.10873,95.84415,3.26089,95.84415C0.543482,95.84415,0,95.37662,0,92.92208L0,90L14.1305,90L28.2611,90L28.2611,92.92208C28.2611,95.25974,27.6089,96.07792,25.0002,96.54546C23.261,97.01299,21.3045,97.94805,20.6523,98.76623000000001C19.8915,99.7013,19.6741,111.5065,19.7828,132.7792L20.1088,165.3896L32.1742,127.987L44.1308,90.584415L48.3699,90.584415L52.6091,90.584415L56.7396,104.6104C59.1309,112.3247,64.7831,131.2597,69.4571,146.6883C74.131,162.1169,78.3702,175.9091,78.6963,177.42860000000002C79.4571,179.7662,79.131,180,75.6527,180L71.8484,180L63.044,151.1299C58.1526,135.1169,53.8048,121.79220000000001,53.37,121.3247C52.9352,120.7403,50.7613,126.3506,48.3699,133.5974C46.0873,140.7273,41.8481,154.1688,38.8046,163.4026L33.4785,180L16.7393,180L0,180L0,177.0779Z" fill="#000000" fill-opacity="1" style="mix-blend-mode:passthrough"/></g><g><path d="M0,177.0779C0,174.6234,0.543482,174.1558,3.26089,174.1558C5.10873,174.1558,7.50006,173.1039,8.69572,171.8182C10.761,169.5974,10.8696,167.961,10.8696,135C10.8696,102.039,10.761,100.4026,8.69572,98.18182C7.50006,96.8961,5.10873,95.84415,3.26089,95.84415C0.543482,95.84415,0,95.37662,0,92.92208L0,90L14.1305,90L28.2611,90L28.2611,92.92208C28.2611,95.25974,27.6089,96.07792,25.0002,96.54546C23.261,97.01299,21.3045,97.94805,20.6523,98.76623000000001C19.8915,99.7013,19.6741,111.5065,19.7828,132.7792L20.1088,165.3896L32.1742,127.987L44.1308,90.584415L48.3699,90.584415L52.6091,90.584415L56.7396,104.6104C59.1309,112.3247,64.7831,131.2597,69.4571,146.6883C74.131,162.1169,78.3702,175.9091,78.6963,177.42860000000002C79.4571,179.7662,79.131,180,75.6527,180L71.8484,180L63.044,151.1299C58.1526,135.1169,53.8048,121.79220000000001,53.37,121.3247C52.9352,120.7403,50.7613,126.3506,48.3699,133.5974C46.0873,140.7273,41.8481,154.1688,38.8046,163.4026L33.4785,180L16.7393,180L0,180L0,177.0779Z" fill="#FFFFFF" fill-opacity="1" style="mix-blend-mode:passthrough"/></g><g><path d="M80.43545118164063,164.80519966552734C76.95716118164063,161.06493966552733,77.82673218164062,157.67532966552736,82.93547118164062,155.57143466552733C85.32679118164063,154.63636966552735,86.73984118164063,154.75325266552736,89.13116118164062,156.03896966552733C93.04426118164062,158.14285966552734,93.58776118164063,161.06493966552733,90.87026118164063,164.57142966552735C88.15290118164063,167.84416966552735,83.37025118164063,167.96106966552733,80.43545118164063,164.80519966552734Z" fill="#2A7DE1" fill-opacity="1" style="mix-blend-mode:passthrough"/></g><g><path d="M71.7389144897461,142.01304656448366C71.7389144897461,141.07794656448363,72.49978948974609,140.25974656448363,73.36936448974609,140.25974656448363C76.19547448974609,140.25974656448363,76.6302544897461,140.02594656448363,78.15200448974609,137.57144656448364C79.3476644897461,135.81814656448364,79.56506448974609,131.14284656448365,79.4563644897461,117.58444656448364C79.2389744897461,99.00001656448364,78.3693944897461,95.84416656448364,73.6954544897461,95.84416656448364C72.6084864897461,95.84416656448364,71.7389144897461,95.02598656448365,71.7389144897461,94.09091656448365C71.7389144897461,92.57144056448364,73.91284448974609,92.33767406448364,85.86941448974609,92.45455716448365C96.9565144897461,92.57144056448364,100.00001448974609,93.03897256448364,100.00001448974609,94.20780656448365C100.00001448974609,95.14286656448364,99.1304144897461,95.84416656448364,98.0434144897461,95.84416656448364C96.8478144897461,95.84416656448364,95.21731448974609,96.77922656448364,94.2391144897461,97.94806656448364C92.60861448974609,99.81819656448364,92.39121448974609,103.32464656448364,92.39121448974609,121.90914656448365L92.39121448974609,143.76624656448365L82.0651144897461,143.76624656448365C73.5867544897461,143.76624656448365,71.7389144897461,143.41554656448363,71.7389144897461,142.01304656448366Z" fill="#2A7DE1" fill-opacity="1" style="mix-blend-mode:passthrough"/></g></g></svg>