<svg xmlns="http://www.w3.org/2000/svg" xmlns:xlink="http://www.w3.org/1999/xlink" fill="none" version="1.1" width="40" height="30" viewBox="0 0 40 30"><g transform="matrix(1,0,0,-1,0,60)"><g><path d="M0,59.025999999999996C0,58.2078,0.217393,58.0519,1.30436,58.0519C2.04349,58.0519,3.00002,57.7013,3.47829,57.2727C4.30438,56.5325,4.34786,55.986999999999995,4.34786,45C4.34786,34.01299,4.30438,33.46753,3.47829,32.72727C3.00002,32.2987,2.04349,31.94805,1.30436,31.94805C0.217393,31.94805,0,31.79221,0,30.974026L0,30L5.65222,30L11.3044,30L11.3044,30.974026C11.3044,31.75325,11.0436,32.02597,10.0001,32.18182C9.30442,32.33766,8.5218,32.64935,8.26093,32.92208C7.95658,33.23377,7.86963,37.16883,7.9131,44.2597L8.04354,55.1299L12.8697,42.6623L17.6523,30.194805L19.348,30.194805L21.0436,30.194805L22.6958,34.87013C23.6524,37.44156,25.9132,43.7532,27.7828,48.896100000000004C29.6524,54.039,31.3481,58.636399999999995,31.4785,59.1429C31.7829,59.9221,31.6524,60,30.2611,60L28.7393,60L25.2176,50.376599999999996C23.261,45.039,21.5219,40.5974,21.348,40.4416C21.1741,40.2468,20.3045,42.1169,19.348,44.5325C18.4349,46.909099999999995,16.7393,51.3896,15.5219,54.4675L13.3914,60L6.6957,60L0,60L0,59.025999999999996Z" fill="#000000" fill-opacity="1" style="mix-blend-mode:passthrough"/></g><g><path d="M32.174179091186524,54.93506655517578C30.782864091186525,53.68831655517578,31.130692091186525,52.55844355517578,33.174184091186525,51.85714455517578C34.130714091186526,51.54545655517578,34.69593409118652,51.584417655175784,35.65246409118652,52.01298955517578C37.21769409118652,52.71428655517578,37.435084091186525,53.68831655517578,36.34812409118652,54.85714655517578C35.261154091186526,55.94805655517578,33.34810409118652,55.987016555175785,32.174179091186524,54.93506655517578Z" fill="#2A7DE1" fill-opacity="1" style="mix-blend-mode:passthrough"/></g><g><path d="M28.695566177368164,47.337648854827876C28.695566177368164,47.02594885482788,28.999916177368164,46.75324885482788,29.347745177368164,46.75324885482788C30.478186177368165,46.75324885482788,30.652106177368164,46.67534885482788,31.260806177368163,45.857148854827884C31.739066177368166,45.27274885482788,31.826026177368163,43.71424885482788,31.782546177368165,39.19480885482788C31.695586177368163,32.99999885482788,31.347756177368165,31.94805885482788,29.478181177368164,31.94805885482788C29.043395177368165,31.94805885482788,28.695566177368164,31.67532885482788,28.695566177368164,31.36363985482788C28.695566177368164,30.85714675482788,29.565138177368166,30.779224654827882,34.347786177368164,30.81818572482788C38.78256617736817,30.85714675482788,39.999966177368165,31.01299085482788,39.999966177368165,31.40260085482788C39.999966177368165,31.714289854827882,39.652166177368166,31.94805885482788,39.21736617736816,31.94805885482788C38.73916617736816,31.94805885482788,38.08694617736816,32.25974885482788,37.695636177368165,32.64935885482788C37.043456177368164,33.27272885482788,36.956496177368166,34.44155885482788,36.956496177368166,40.63636885482788L36.956496177368166,47.92204885482788L32.82603617736817,47.92204885482788C29.434702177368163,47.92204885482788,28.695566177368164,47.80514885482788,28.695566177368164,47.337648854827876Z" fill="#2A7DE1" fill-opacity="1" style="mix-blend-mode:passthrough"/></g></g></svg>