<svg width="959" height="759" viewBox="0 0 959 759" fill="none" xmlns="http://www.w3.org/2000/svg">
<path d="M453.6 18.1334C362.4 29.7334 283.333 70.5334 223.2 136.933C173.867 191.6 142.8 257.333 131.067 332C127.2 357.067 128 440.8 132.133 428C132.667 426.133 135.067 417.733 137.333 409.333C143.867 385.733 152.267 364.267 165.2 338C179.2 309.733 188 294.933 204.8 271.333C267.867 183.333 355.333 124.533 446.133 109.333C462.4 106.667 494.533 103.733 496.267 104.933C496.933 105.2 497.333 150.4 497.333 205.333C497.333 260.267 497.733 305.467 498.4 305.733C498.933 306.133 533.867 277.733 576 242.533C618.133 207.467 653.333 178.667 654.267 178.667C658.933 178.667 691.067 211.467 706.133 231.467C749.467 289.2 776 357.733 782.8 429.867C784.8 451.067 783.6 496.933 780.667 515.333C771.733 571.6 750 621.733 716 664.667C711.333 670.533 699.467 683.333 689.467 693.2C671.333 711.067 671.333 711.067 679.333 706.667C707.333 691.067 730.8 673.2 756.8 647.333C789.2 615.2 808.267 589.333 827.333 551.867C862.134 483.333 874.534 407.6 863.2 330.667C847.067 219.467 779.733 121.067 680.667 63.6001C640.933 40.6667 589.333 23.8667 540 18.0001C519.467 15.6001 472.8 15.6001 453.6 18.1334Z" fill="#153B83"/>
<path d="M374 220.4C362.533 227.333 343.733 240.133 332.8 248.533C327.067 253.067 318.933 259.2 314.8 262.4C302.533 271.733 268.8 304.533 253.6 322C227.733 351.467 219.2 362.533 199.733 391.333C156.267 455.467 123.067 526 100.8 601.067C94.2666 622.8 84.2666 666.667 85.7332 666.667C86.1332 666.667 88.9332 662.267 92.1332 657.067C104.267 636.4 118.133 618.8 139.6 596.533C150.667 584.933 172.267 566.667 174.667 566.667C175.733 566.667 180.4 572.667 185.067 580.4C221.067 638.8 276.8 688.533 339.333 718.133C373.467 734.133 403.067 743.067 446.667 750.267C466.8 753.6 520.8 753.6 538.8 750.267C592 740.533 631.467 716.267 660.133 675.733C700 619.467 713.733 538.267 697.2 455.733C687.6 407.467 666.933 363.2 642 337.2C638.533 333.467 635.2 330.8 634.533 330.933C634 331.2 611.733 349.867 585.2 372.667C558.8 395.333 534.267 416.267 530.8 418.933L524.667 424H453.067H381.333L381.067 320.267L380.667 216.4L374 220.4Z" fill="#3F77E4"/>
</svg>
