<svg xmlns="http://www.w3.org/2000/svg" xmlns:xlink="http://www.w3.org/1999/xlink" fill="none" version="1.1" width="48" height="48" viewBox="0 0 48 48"><defs><clipPath id="master_svg0_2_0395"><rect x="14" y="14" width="20" height="20" rx="0"/></clipPath></defs><g><rect x="0" y="0" width="48" height="48" rx="8" fill="#2A7DE1" fill-opacity="0.10000000149011612" style="mix-blend-mode:passthrough"/><g><rect x="14" y="10" width="20" height="28" rx="0" fill="#000000" fill-opacity="0" style="mix-blend-mode:passthrough"/><g clip-path="url(#master_svg0_2_0395)"><g transform="matrix(1,0,0,-1,0,66.359375)"><g><path d="M16.5,49.4296875Q16.5,49.9765875,16.14844,50.328087499999995Q15.79688,50.6796875,15.25,50.6796875Q14.703125,50.6796875,14.351562,50.328087499999995Q14,49.9765875,14,49.4296875L14,36.3046875Q14.0390625,34.9765675,14.898438,34.0781255Q15.79688,33.21875,17.125,33.1796875L32.75,33.1796875Q33.2969,33.1796875,33.648399999999995,33.5312495Q34,33.8828125,34,34.4296875Q34,34.9765675,33.648399999999995,35.3281275Q33.2969,35.6796875,32.75,35.6796875L17.125,35.6796875Q16.53906,35.7187475,16.5,36.3046875L16.5,49.4296875ZM32.398399999999995,46.0312875Q32.75,46.4218875,32.75,46.9296875Q32.75,47.4374875,32.398399999999995,47.8280875Q32.0078,48.1796875,31.5,48.1796875Q30.9922,48.1796875,30.6016,47.8280875L26.5,43.6874875L24.273400000000002,45.9530875Q23.88281,46.3046875,23.375,46.3046875Q22.86719,46.3046875,22.47656,45.9530875L18.10156,41.5781275Q17.75,41.1874975,17.75,40.6796875Q17.75,40.1718775,18.10156,39.7812475Q18.49219,39.4296875,19,39.4296875Q19.50781,39.4296875,19.89844,39.7812475L23.375,43.2968875L25.601599999999998,41.0312475Q25.9922,40.6796875,26.5,40.6796875Q27.0078,40.6796875,27.398400000000002,41.0312475L32.398399999999995,46.0312875Z" fill="#000000" fill-opacity="1" style="mix-blend-mode:passthrough"/></g></g></g></g></g></svg>