<svg xmlns="http://www.w3.org/2000/svg" xmlns:xlink="http://www.w3.org/1999/xlink" fill="none" version="1.1" width="48" height="48" viewBox="0 0 48 48"><defs><clipPath id="master_svg0_2_0385"><rect x="12.75" y="14" width="22.5" height="20" rx="0"/></clipPath></defs><g><rect x="0" y="0" width="48" height="48" rx="8" fill="#2A7DE1" fill-opacity="0.10000000149011612" style="mix-blend-mode:passthrough"/><g><rect x="12.75" y="10" width="22.5" height="28" rx="0" fill="#000000" fill-opacity="0" style="mix-blend-mode:passthrough"/><g clip-path="url(#master_svg0_2_0385)"><g transform="matrix(1,0,0,-1,0,63.859375)"><g><path d="M12.75,44.4296875Q12.7890625,45.4843875,13.492188,46.1874875Q14.19531,46.8905875,15.25,46.9296875L25.25,46.9296875Q26.3047,46.8905875,27.0078,46.1874875Q27.710900000000002,45.4843875,27.75,44.4296875L27.75,34.4296875Q27.710900000000002,33.3749975,27.0078,32.6718755Q26.3047,31.96875,25.25,31.9296875L15.25,31.9296875Q14.19531,31.96875,13.492188,32.6718755Q12.7890625,33.3749975,12.75,34.4296875L12.75,44.4296875ZM34.585899999999995,45.5234875Q35.210899999999995,45.1718875,35.25,44.4296875L35.25,34.4296875Q35.210899999999995,33.6874975,34.585899999999995,33.3359375Q33.9219,32.9843775,33.2969,33.3749975L29.5469,35.8749975L29,36.2656275L29,36.9296875L29,41.9296875L29,42.5937875L29.5469,42.9843875L33.2969,45.4843875Q33.9219,45.8358875,34.585899999999995,45.5234875Z" fill="#000000" fill-opacity="1" style="mix-blend-mode:passthrough"/></g></g></g></g></g></svg>